<svg width="20" height="20" viewBox="0 0 20 20" fill="none" xmlns="http://www.w3.org/2000/svg">
<path d="M9 0L8.64648 2.12305C8.15974 2.20672 7.68918 2.33608 7.23633 2.50391L5.86523 0.839844L4.13477 1.83984L4.88867 3.85352C4.51324 4.1664 4.1664 4.51324 3.85352 4.88867L1.83984 4.13477L0.839844 5.86523L2.50391 7.23633C2.33608 7.68918 2.20672 8.15974 2.12305 8.64648L0 9V11L2.12305 11.3535C2.20672 11.8403 2.33608 12.3108 2.50391 12.7637L0.839844 14.1348L1.83984 15.8652L3.85352 15.1113C4.1664 15.4868 4.51324 15.8336 4.88867 16.1465L4.13477 18.1602L5.86523 19.1602L7.23633 17.4961C7.68918 17.6639 8.15974 17.7933 8.64648 17.877L9 20H11L11.3535 17.877C11.8403 17.7933 12.3108 17.6639 12.7637 17.4961L14.1348 19.1602L15.8652 18.1602L15.1113 16.1465C15.4868 15.8336 15.8336 15.4868 16.1465 15.1113L18.1602 15.8652L19.1602 14.1348L17.4961 12.7637C17.6639 12.3108 17.7933 11.8403 17.877 11.3535L20 11V9L17.877 8.64648C17.7933 8.15974 17.6639 7.68918 17.4961 7.23633L19.1602 5.86523L18.1602 4.13477L16.1465 4.88867C15.8336 4.51324 15.4868 4.1664 15.1113 3.85352L15.8652 1.83984L14.1348 0.839844L12.7637 2.50391C12.3108 2.33608 11.8403 2.20672 11.3535 2.12305L11 0H9ZM9 4.08984V7.17383C8.41546 7.38049 7.90931 7.76319 7.55116 8.26928C7.19301 8.77538 7.00047 9.38 7 10C7.00081 10.1835 7.01847 10.3666 7.05273 10.5469L4.37891 12.0918C4.13783 11.4403 4 10.7376 4 10C4 7.01614 6.15536 4.5638 9 4.08984ZM11 4.08984C13.8446 4.5638 16 7.01614 16 10C16 10.7376 15.8622 11.4403 15.6211 12.0918L12.9473 10.5488C12.9817 10.3679 12.9993 10.1842 13 10C12.9991 9.38033 12.8064 8.77614 12.4483 8.27044C12.0902 7.76474 11.5842 7.38234 11 7.17578V4.08984ZM8.05273 12.2773C8.59507 12.7424 9.28557 12.9987 10 13C10.7149 12.9997 11.4061 12.7441 11.9492 12.2793L14.6289 13.8262C13.5304 15.156 11.8686 16 10 16C8.13138 16 6.46961 15.156 5.37109 13.8262L8.05273 12.2773Z" fill="#A3A3B1"/>
</svg>
