<svg width="16" height="17" viewBox="0 0 16 17" fill="none" xmlns="http://www.w3.org/2000/svg">
<path fill-rule="evenodd" clip-rule="evenodd" d="M14 4.5C14 3.55719 14 3.08579 13.7071 2.79289C13.4142 2.5 12.9428 2.5 12 2.5H3C2.05719 2.5 1.58579 2.5 1.29289 2.79289C1 3.08579 1 3.55719 1 4.5V5.5H14V4.5Z" fill="#81DED8"/>
<path fill-rule="evenodd" clip-rule="evenodd" d="M2 5.5H1V13.5C1 14.0523 1.44772 14.5 2 14.5H13C13.5523 14.5 14 14.0523 14 13.5V5.5H13V7.5H10V5.5H9V7.5H6V5.5H5V7.5H2V5.5ZM5 8.5H2V10.5H5V8.5ZM6 8.5H9V10.5H6V8.5ZM13 8.5H10V10.5H13V8.5ZM2 11.5H5V13.5H2V11.5ZM9 11.5H6V13.5H9V11.5ZM10 11.5H13V13.5H10V11.5Z" fill="#BAE7FF"/>
</svg>
