<svg width="16" height="16" viewBox="0 0 16 16" fill="none" xmlns="http://www.w3.org/2000/svg">
<path d="M6 11C5.44922 11 5 11.4492 5 12C5 12.5508 5.44922 13 6 13C6.55078 13 7 12.5508 7 12C7 11.4492 6.55078 11 6 11Z" fill="#464753"/>
<path d="M10 11C9.44922 11 9 11.4492 9 12C9 12.5508 9.44922 13 10 13C10.5508 13 11 12.5508 11 12C11 11.4492 10.5508 11 10 11Z" fill="#464753"/>
<path d="M6 7C5.44922 7 5 7.44922 5 8C5 8.55078 5.44922 9 6 9C6.55078 9 7 8.55078 7 8C7 7.44922 6.55078 7 6 7Z" fill="#464753"/>
<path d="M10 7C9.44922 7 9 7.44922 9 8C9 8.55078 9.44922 9 10 9C10.5508 9 11 8.55078 11 8C11 7.44922 10.5508 7 10 7Z" fill="#464753"/>
<path d="M6 3C5.44922 3 5 3.44922 5 4C5 4.55078 5.44922 5 6 5C6.55078 5 7 4.55078 7 4C7 3.44922 6.55078 3 6 3Z" fill="#464753"/>
<path d="M10 3C9.44922 3 9 3.44922 9 4C9 4.55078 9.44922 5 10 5C10.5508 5 11 4.55078 11 4C11 3.44922 10.5508 3 10 3Z" fill="#464753"/>
</svg>
