<svg width="16" height="16" viewBox="0 0 16 16" fill="none" xmlns="http://www.w3.org/2000/svg">
<mask id="mask0_5449_12278" style="mask-type:alpha" maskUnits="userSpaceOnUse" x="0" y="0" width="16" height="16">
<path d="M1 2V2.5V14H7V12H8.99414C8.99385 12.1612 8.99349 12.3269 8.99414 12.5117C8.995 12.7568 8.99486 12.8152 8.99609 13H8V14H11V13H9.99609C9.99485 12.8151 9.99501 12.7547 9.99414 12.5078C9.99349 12.3237 9.99385 12.1593 9.99414 12H13.5C14.3225 12 15 11.3225 15 10.5V5.5C15 4.67747 14.3225 4 13.5 4H7V2H1ZM2 3H6V13H2V3ZM3 4V5H5V4H3ZM7 5H13.5C13.7815 5 14 5.21853 14 5.5V10.5C14 10.7815 13.7815 11 13.5 11H7V5ZM3 6V7H5V6H3Z" fill="#A3A3B1"/>
</mask>
<g mask="url(#mask0_5449_12278)">
<rect width="16" height="16" />
</g>
</svg>
