<svg width="16" height="16" viewBox="0 0 16 16" fill="none" xmlns="http://www.w3.org/2000/svg">
<path d="M2.5 1C1.67747 1 1 1.67747 1 2.5V5.5C1 6.32253 1.67747 7 2.5 7H5.5C6.32253 7 7 6.32253 7 5.5V2.5C7 1.67747 6.32253 1 5.5 1H2.5ZM2.5 2H5.5C5.78147 2 6 2.21853 6 2.5V5.5C6 5.78147 5.78147 6 5.5 6H2.5C2.21853 6 2 5.78147 2 5.5V2.5C2 2.21853 2.21853 2 2.5 2Z" fill="#81DED8"/>
<path fill-rule="evenodd" clip-rule="evenodd" d="M9.5 1C8.67747 1 8 1.67747 8 2.5V5.5C8 6.32253 8.67747 7 9.5 7H12.5C13.3225 7 14 6.32253 14 5.5V2.5C14 1.67747 13.3225 1 12.5 1H9.5ZM12.5 2H9.5C9.21853 2 9 2.21853 9 2.5V5.5C9 5.78147 9.21853 6 9.5 6H12.5C12.7815 6 13 5.78147 13 5.5V2.5C13 2.21853 12.7815 2 12.5 2Z" fill="#FF85C0"/>
<path fill-rule="evenodd" clip-rule="evenodd" d="M9.5 8C8.67747 8 8 8.67747 8 9.5V12.5C8 13.3225 8.67747 14 9.5 14H12.5C13.3225 14 14 13.3225 14 12.5V9.5C14 8.67747 13.3225 8 12.5 8H9.5ZM12.5 9H9.5C9.21853 9 9 9.21853 9 9.5V12.5C9 12.7815 9.21853 13 9.5 13H12.5C12.7815 13 13 12.7815 13 12.5V9.5C13 9.21853 12.7815 9 12.5 9Z" fill="#81DED8"/>
<path fill-rule="evenodd" clip-rule="evenodd" d="M2.5 8C1.67747 8 1 8.67747 1 9.5V12.5C1 13.3225 1.67747 14 2.5 14H5.5C6.32253 14 7 13.3225 7 12.5V9.5C7 8.67747 6.32253 8 5.5 8H2.5ZM5.5 9H2.5C2.21853 9 2 9.21853 2 9.5V12.5C2 12.7815 2.21853 13 2.5 13H5.5C5.78147 13 6 12.7815 6 12.5V9.5C6 9.21853 5.78147 9 5.5 9Z" fill="#FFD666"/>
</svg>
