<svg width="16" height="16" viewBox="0 0 16 16" xmlns="http://www.w3.org/2000/svg">
<path d="M7 3V5H6.5C5.6875 5 5 5.6875 5 6.5C5 7.3125 5.6875 8 6.5 8H8.5C8.75781 8 9 8.24219 9 8.5C9 8.75781 8.75781 9 8.5 9H5V10H7V12H8V10H8.5C9.3125 10 10 9.3125 10 8.5C10 7.6875 9.3125 7 8.5 7H6.5C6.24219 7 6 6.75781 6 6.5C6 6.24219 6.24219 6 6.5 6H9V5H8V3H7Z" />
<path fill-rule="evenodd" clip-rule="evenodd" d="M7.5 13C10.5376 13 13 10.5376 13 7.5C13 4.46243 10.5376 2 7.5 2C4.46243 2 2 4.46243 2 7.5C2 10.5376 4.46243 13 7.5 13ZM7.5 14C11.0899 14 14 11.0899 14 7.5C14 3.91015 11.0899 1 7.5 1C3.91015 1 1 3.91015 1 7.5C1 11.0899 3.91015 14 7.5 14Z" />
</svg>
