<svg width="13" height="13" viewBox="0 0 13 13" fill="none" xmlns="http://www.w3.org/2000/svg">
<path d="M6.5 0C2.91797 0 0 2.91797 0 6.5C0 10.082 2.91797 13 6.5 13C10.082 13 13 10.082 13 6.5C13 2.91797 10.082 0 6.5 0ZM6.5 1C9.54297 1 12 3.45703 12 6.5C12 9.54297 9.54297 12 6.5 12C3.45703 12 1 9.54297 1 6.5C1 3.45703 3.45703 1 6.5 1ZM6.55859 3C5.34766 3.07031 4.35938 4.08594 4.35938 5.32031H5.35938C5.35938 4.50781 6.0625 3.87109 6.92188 4.01953C7.53516 4.125 8.01953 4.72656 8 5.35938C7.98438 5.91406 7.66016 6.26562 7.18359 6.47656C6.88672 6.60938 6.60547 6.73438 6.36719 6.98438C6.12891 7.23438 6 7.60547 6 8H7C7 7.77344 7.03125 7.73828 7.09375 7.67188C7.15234 7.60938 7.31641 7.51172 7.58594 7.39062C8.33203 7.06641 8.97266 6.35156 9 5.39062C9.03516 4.25391 8.21875 3.22656 7.08984 3.03125C6.91016 3.00391 6.73047 2.99219 6.55859 3ZM6 9V10H7V9H6Z" fill="#A3A3B1"/>
</svg>
