<svg width="16" height="17" viewBox="0 0 16 17" fill="none" xmlns="http://www.w3.org/2000/svg">
<path d="M14 6.26658C14 13.0999 8 15.1666 8 15.1666C8 15.1666 2 13.0999 2 6.26658C2 5.43325 2.06667 4.73325 2.13333 4.16659C2.23333 3.33325 2.8 2.66659 3.6 2.46659C4.63333 2.16659 6.26667 1.83325 8 1.83325C9.73333 1.83325 11.3667 2.16659 12.4333 2.46659C13.2333 2.66659 13.8 3.36659 13.9 4.16659C13.9333 4.73325 14 5.46658 14 6.26658Z" fill="#542617"/>
<path d="M8 2.55C9.63333 2.55 11.1667 2.9 12.1667 3.18C12.5667 3.285 12.8333 3.635 12.9 4.09C12.9667 4.755 13 5.455 13 6.155C13 11.615 9.16667 13.82 8 14.345C6.83333 13.785 3 11.58 3 6.155C3 5.455 3.03333 4.755 3.1 4.09C3.13333 3.635 3.43333 3.285 3.83333 3.18C4.83333 2.9 6.36667 2.55 8 2.55ZM8 1.5C6.26667 1.5 4.63333 1.85 3.56667 2.165C2.8 2.375 2.2 3.11 2.13333 3.95C2.06667 4.545 2 5.315 2 6.155C2 13.33 8 15.5 8 15.5C8 15.5 14 13.33 14 6.155C14 5.28 13.9333 4.545 13.8667 3.95C13.7667 3.075 13.2 2.375 12.4 2.165C11.3667 1.85 9.73333 1.5 8 1.5Z" fill="#6AC43E"/>
<path d="M7.5 9.83325H8.5V12.4999H7.5V9.83325Z" fill="#FAFAFA"/>
<path d="M8 3.5C8 3.5 5 5.23913 5 8.02174C5 9.83043 6.65 10.9783 7.5 11.5L8 10.4565L8.5 11.5C9.35 10.9783 11 9.83043 11 8.02174C11 5.23913 8 3.5 8 3.5Z" fill="#6AC43E"/>
<path d="M8 3.5C8 3.5 5 5.23913 5 8.02174C5 9.83043 6.65 10.9783 7.5 11.5L8 10.4565V3.5Z" fill="#D3F261"/>
</svg>
