<svg width="16" height="17" viewBox="0 0 16 17" fill="none" xmlns="http://www.w3.org/2000/svg">
<path d="M6 11.5V5.5L10 8.5L6 11.5Z" fill="#B9E01E"/>
<path d="M5 2.5C3.90278 2.5 3.04369 2.74511 2.46582 3.38522C1.88795 4.02532 1.66667 4.97692 1.66667 6.19231C1.66667 7.33754 0.902448 8.03846 0 8.03846V8.96154C0.902448 8.96154 1.66667 9.66246 1.66667 10.8077C1.66667 12.0231 1.88795 12.9747 2.46582 13.6148C3.04369 14.2549 3.90278 14.5 5 14.5V13.5769C4.01389 13.5769 3.41464 13.3605 3.05501 12.9621C2.69538 12.5638 2.5 11.9 2.5 10.8077C2.5 9.66698 1.84233 8.93732 1.03841 8.5C1.84233 8.06268 2.5 7.33302 2.5 6.19231C2.5 5.1 2.69538 4.43622 3.05501 4.03786C3.41464 3.6395 4.01389 3.42308 5 3.42308V2.5Z" fill="#B9E01E"/>
<path d="M10 14.5C11.0972 14.5 11.9563 14.2549 12.5342 13.6148C13.1121 12.9747 13.3333 12.0231 13.3333 10.8077C13.3333 9.66246 14.0976 8.96154 15 8.96154V8.03846C14.0976 8.03846 13.3333 7.33754 13.3333 6.19231C13.3333 4.97692 13.1121 4.02532 12.5342 3.38522C11.9563 2.74511 11.0972 2.5 10 2.5V3.42308C10.9861 3.42308 11.5854 3.6395 11.945 4.03786C12.3046 4.43622 12.5 5.1 12.5 6.19231C12.5 7.33302 13.1577 8.06268 13.9616 8.5C13.1577 8.93732 12.5 9.66698 12.5 10.8077C12.5 11.9 12.3046 12.5638 11.945 12.9621C11.5854 13.3605 10.9861 13.5769 10 13.5769V14.5Z" fill="#B9E01E"/>
</svg>
