<svg width="16" height="16" viewBox="0 0 16 16" fill="none" xmlns="http://www.w3.org/2000/svg">
<path d="M1 9V14H6V9H1Z" fill="#85A5FF"/>
<path d="M11.5 8.00001L7.99999 11.5L11.5 15.0356L15 11.5L11.5 8.00001Z" fill="#FF8979"/>
<rect x="11" y="7" width="1" height="3" fill="#FF8979"/>
<rect x="3" y="5" width="1" height="3" fill="#AA60F9"/>
<rect x="10" y="3" width="1" height="3" transform="rotate(90 10 3)" fill="#FF85C0"/>
<circle cx="11.5" cy="3.5" r="2.5" fill="#FF85C0"/>
<path fill-rule="evenodd" clip-rule="evenodd" d="M3.5 6C4.88071 6 6 4.88071 6 3.5C6 2.11929 4.88071 1 3.5 1C2.11929 1 1 2.11929 1 3.5C1 4.88071 2.11929 6 3.5 6ZM3.5 5C4.32843 5 5 4.32843 5 3.5C5 2.67157 4.32843 2 3.5 2C2.67157 2 2 2.67157 2 3.5C2 4.32843 2.67157 5 3.5 5Z" fill="#AA60F9"/>
</svg>
